<svg id="Layer_1" data-name="Layer 1" xmlns="http://www.w3.org/2000/svg" viewBox="0 0 400.46 82.94"><defs><style>.cls-1,.cls-8{fill:#fefefe;}.cls-1{stroke:#fefefe;stroke-miterlimit:10;stroke-width:0.5px;}.cls-2{fill:#797979;}.cls-3,.cls-6{fill:#0e3499;}.cls-3,.cls-5{fill-rule:evenodd;}.cls-4{fill:#fefbff;}.cls-5{fill:#fff;}.cls-7{isolation:isolate;}</style></defs><g id="Layer_1-2" data-name="Layer_1"><g id="_2936368500912" data-name=" 2936368500912"><rect class="cls-1" x="0.25" y="0.25" width="399.96" height="82.44"/><g id="_2840631362416" data-name=" 2840631362416"><rect class="cls-2" x="4.28" y="4.26" width="69.17" height="74.15"/><polygon class="cls-3" points="28.96 35.07 38.92 22.73 48.77 35.07 48.77 74.09 28.96 74.09 28.96 35.07"/><rect class="cls-4" x="26.01" y="74.15" width="25.72" height="4.53"/><path class="cls-5" d="M18,64,12.8,59.66a.56.56,0,0,1-.12-.8L31.21,38.59a.59.59,0,0,1,.8,0L33.81,40l2.34-2.83L33.8,34.83l2.4-2.4-2.31-2.31.2-.2L29.92,34.2c-.23.23-.63.29-.8.06L12.62,11.89a.61.61,0,0,1,0-.8l4.79-4.81a.56.56,0,0,1,.8,0L36.8,26.35a.58.58,0,0,1,0,.8l-1.62,1.67,2.36,2.29,1.79-1.79,1.92,1.92,2.25-2.74.22.18L39,24.79c-.25-.21-.36-.6-.15-.8L59,6a.58.58,0,0,1,.79,0l5.33,4.47a.58.58,0,0,1,.15.8L47.55,31.16a.55.55,0,0,1-.79,0l-1.84-1.51-2.36,2.89,2.26,2.26-2.41,2.41,2.37,2.49-.2.2,4.36-4.24c.24-.23.65-.29.81,0L65.29,58.1a.6.6,0,0,1-.06.8l-5,4.75a.57.57,0,0,1-.81.05L41.7,43.46a.57.57,0,0,1,.06-.79L43.46,41l-2.37-2.46-1.78,1.77-1.85-1.84-2.25,2.66L35,41l4.62,3.77a.54.54,0,0,1,.12.79L18.78,63.94A.61.61,0,0,1,18,64ZM16.61,15.15a.52.52,0,1,1-.74-.74l1.7-1.7a.52.52,0,0,1,.74,0,.51.51,0,0,1,0,.74l-1.7,1.71Zm-2-2.56a.51.51,0,0,1-.74,0,.53.53,0,0,1,0-.74l1.7-1.7a.53.53,0,0,1,.74,0,.51.51,0,0,1,0,.74l-1.7,1.7Zm3.8,5.24a.52.52,0,0,1-.74,0,.51.51,0,0,1,0-.74L19.73,15a.51.51,0,0,1,.74,0,.52.52,0,0,1,0,.74l-2.1,2.09Zm2,2.62a.52.52,0,0,1-.74,0,.53.53,0,0,1,0-.74l2.55-2.56a.53.53,0,0,1,.74,0,.51.51,0,0,1,0,.74ZM22.28,23a.52.52,0,0,1-.74,0,.51.51,0,0,1,0-.74l2.55-2.55a.51.51,0,0,1,.74,0,.53.53,0,0,1,0,.74L22.28,23Zm1.9,2.42a.52.52,0,0,1-.75-.73L26,22.17a.52.52,0,1,1,.74.74ZM25.94,28a.51.51,0,0,1-.74,0,.53.53,0,0,1,0-.74l3.05-3a.51.51,0,0,1,.74,0,.53.53,0,0,1,0,.74Zm1.85,2.61a.52.52,0,0,1-.74-.74l3.05-3.05a.52.52,0,0,1,.74.74Zm2,2.73a.51.51,0,0,1-.74,0,.52.52,0,0,1,0-.74l3.16-3.48a.52.52,0,1,1,.77.71l-3.16,3.48ZM17.71,8.74A.52.52,0,0,1,17,8l.67-.67a.52.52,0,0,1,.74,0,.51.51,0,0,1,0,.74l-.66.67h0Zm2.23,2.31a.52.52,0,0,1-.74,0,.53.53,0,0,1,0-.74l.67-.67a.51.51,0,0,1,.74,0,.53.53,0,0,1,0,.74l-.67.66Zm2.21,2.29a.53.53,0,0,1-.74,0,.51.51,0,0,1,0-.74l.67-.67a.52.52,0,0,1,.74.74Zm2.06,2.49a.52.52,0,1,1-.74-.74l.67-.67a.52.52,0,0,1,.74.74l-.67.67Zm2,2.39a.52.52,0,1,1-.74-.74l.67-.67a.52.52,0,0,1,.74.74l-.67.67Zm2,2.32a.51.51,0,0,1-.73,0,.52.52,0,0,1,0-.74l.67-.67a.51.51,0,0,1,.74,0,.52.52,0,0,1,0,.74ZM30.47,23a.53.53,0,0,1-.74,0,.52.52,0,0,1,0-.74l.67-.67a.52.52,0,0,1,.74.74l-.67.67Zm2.06,2.36a.52.52,0,1,1-.74-.74l.67-.67a.52.52,0,0,1,.74,0,.53.53,0,0,1,0,.74l-.67.66h0Zm2.2,2.48a.52.52,0,0,1-.74,0,.51.51,0,0,1,0-.74l.66-.67a.51.51,0,0,1,.74,0,.52.52,0,0,1,0,.74Zm21.54-17.6a.55.55,0,0,1-.09-.74.51.51,0,0,1,.73-.05L58.8,11a.53.53,0,0,1,.09.74.52.52,0,0,1-.73.05l-1.89-1.59ZM58.56,8a.54.54,0,0,1-.08-.74.52.52,0,0,1,.73,0l1.89,1.6a.55.55,0,0,1,.09.74.52.52,0,0,1-.73,0L58.57,8h0Zm-4.74,4.16a.54.54,0,0,1-.09-.75.52.52,0,0,1,.73-.05l2.33,2a.54.54,0,0,1,.09.74.53.53,0,0,1-.74.06l-2.32-2Zm-2.36,2.2a.55.55,0,0,1-.09-.74.52.52,0,0,1,.74,0L54.94,16a.53.53,0,0,1,.09.74.51.51,0,0,1-.73.05l-2.84-2.39Zm-2.34,2a.53.53,0,0,1-.09-.74.51.51,0,0,1,.73-.05L52.59,18a.53.53,0,0,1,.09.74.51.51,0,0,1-.73.05L49.12,16.4Zm-2.18,2.06a.53.53,0,0,1-.09-.74.52.52,0,0,1,.73,0l2.84,2.39a.55.55,0,0,1,.09.74.52.52,0,0,1-.74.05l-2.83-2.39ZM44.68,20.4a.54.54,0,0,1-.09-.74.52.52,0,0,1,.74-.05l3.38,2.85a.54.54,0,0,1,.08.74.51.51,0,0,1-.73.05L44.68,20.4Zm-2.36,2a.51.51,0,1,1,.65-.79l3.37,2.85a.53.53,0,0,1,.09.74.51.51,0,0,1-.73.05Zm-2.48,2.19a.54.54,0,0,1-.11-.74.51.51,0,0,1,.73-.09l3.82,2.94a.52.52,0,0,1,.12.73.51.51,0,0,1-.73.09l-3.83-2.93ZM62.76,10.89a.53.53,0,0,1-.09-.74.51.51,0,0,1,.73-.05l.74.62a.53.53,0,0,1,.09.74.51.51,0,0,1-.73,0l-.74-.62Zm-2,2.38a.54.54,0,0,1-.09-.74.51.51,0,0,1,.73,0l.75.62a.54.54,0,0,1,.08.74.51.51,0,0,1-.73.05l-.74-.62Zm-2,2.36a.53.53,0,0,1-.09-.74.51.51,0,0,1,.73-.05l.74.63a.53.53,0,0,1,.09.74.52.52,0,0,1-.73.05l-.74-.63ZM56.5,17.86a.53.53,0,0,1-.09-.74.51.51,0,0,1,.73-.05l.74.63a.55.55,0,0,1,.09.74.52.52,0,0,1-.73,0l-.74-.63Zm-2.14,2.19a.52.52,0,0,1-.08-.73.51.51,0,0,1,.73-.06l.74.63a.55.55,0,0,1,.09.74.51.51,0,0,1-.73.05l-.75-.62ZM52.3,22.24a.53.53,0,0,1-.09-.74.51.51,0,0,1,.73-.05l.74.62a.53.53,0,0,1,.09.74.51.51,0,0,1-.73.06l-.74-.63ZM50.16,24.6a.53.53,0,0,1-.09-.74.51.51,0,0,1,.73-.05l.74.62a.53.53,0,0,1,.09.74.51.51,0,0,1-.73,0l-.74-.62Zm-2.1,2.22a.55.55,0,0,1-.09-.74.52.52,0,0,1,.74,0l.74.62a.54.54,0,0,1,.09.74.52.52,0,0,1-.74.06l-.74-.63Zm-2.2,2.36a.53.53,0,0,1-.09-.74.51.51,0,0,1,.73-.05l.74.63a.53.53,0,0,1,.09.74.52.52,0,0,1-.73,0l-.74-.63ZM61.44,54.82a.51.51,0,1,1,.71.74l-1.78,1.68a.53.53,0,0,1-.74,0,.52.52,0,0,1,0-.74l1.78-1.68h0Zm1.92,2.56a.52.52,0,0,1,.74,0,.51.51,0,0,1,0,.73l-1.78,1.69a.52.52,0,0,1-.74,0,.51.51,0,0,1,0-.73l1.78-1.69Zm-3.57-5.26a.51.51,0,1,1,.71.74l-2.2,2.08a.52.52,0,0,1-.74,0,.53.53,0,0,1,0-.74l2.2-2.07Zm-1.92-2.63a.51.51,0,1,1,.71.74L55.9,52.76a.51.51,0,1,1-.71-.74Zm-1.76-2.6a.52.52,0,0,1,.74,0,.51.51,0,0,1,0,.73l-2.67,2.53a.53.53,0,0,1-.74,0,.51.51,0,0,1,0-.74l2.67-2.53Zm-1.8-2.43a.52.52,0,0,1,.74,0,.51.51,0,0,1,0,.74l-2.67,2.53a.52.52,0,1,1-.71-.75l2.67-2.52ZM52.65,42a.51.51,0,1,1,.71.74l-3.19,3a.52.52,0,0,1-.74,0,.53.53,0,0,1,0-.74l3.19-3Zm-1.74-2.62a.52.52,0,1,1,.71.75l-3.19,3a.52.52,0,0,1-.74,0,.51.51,0,0,1,0-.73l3.18-3ZM49,36.6a.53.53,0,0,1,.74,0,.52.52,0,0,1,0,.74l-3.33,3.45a.51.51,0,1,1-.74-.71L49,36.6Zm11,24.6a.52.52,0,0,1,.74,0,.51.51,0,0,1,0,.73l-.7.66a.51.51,0,1,1-.71-.74Zm-2.13-2.33a.53.53,0,0,1,.74,0,.52.52,0,0,1,0,.74l-.7.66a.52.52,0,0,1-.74,0,.53.53,0,0,1,0-.74l.7-.66Zm-2.11-2.3a.52.52,0,0,1,.74,0,.51.51,0,0,1,0,.73l-.7.66a.51.51,0,0,1-.74,0,.52.52,0,0,1,0-.74l.7-.66Zm-2-2.5a.53.53,0,0,1,.74,0,.52.52,0,0,1,0,.74l-.7.66a.51.51,0,1,1-.71-.74l.7-.66Zm-1.93-2.4a.52.52,0,0,1,.74,0,.51.51,0,0,1,0,.74l-.7.66a.51.51,0,1,1-.71-.74l.7-.66ZM50,49.33a.53.53,0,0,1,.74,0,.52.52,0,0,1,0,.74l-.7.66a.53.53,0,0,1-.74,0,.52.52,0,0,1,0-.74l.7-.66ZM47.9,46.89a.51.51,0,1,1,.71.74l-.7.66a.51.51,0,1,1-.71-.74l.7-.66Zm-2-2.37a.52.52,0,0,1,.74,0,.5.5,0,0,1,0,.73l-.69.66a.52.52,0,0,1-.74,0,.51.51,0,0,1,0-.74ZM43.84,42a.54.54,0,0,1,.75,0,.53.53,0,0,1,0,.74l-.7.66a.53.53,0,0,1-.74,0,.51.51,0,0,1,0-.74ZM21.7,59.68a.53.53,0,0,1-.67.81l-1.84-1.55a.51.51,0,0,1-.06-.73.5.5,0,0,1,.73-.07l1.84,1.54Zm-2.38,2.25a.52.52,0,0,1,.06.74.51.51,0,0,1-.73.06l-1.84-1.54a.53.53,0,0,1-.07-.74.52.52,0,0,1,.74-.06l1.84,1.54Zm4.92-4.25a.53.53,0,0,1-.68.81l-2.26-1.9a.53.53,0,1,1,.67-.81l2.27,1.9Zm2.44-2.25a.51.51,0,0,1,.06.73.5.5,0,0,1-.73.07l-2.76-2.31a.52.52,0,0,1-.06-.74.51.51,0,0,1,.73-.06l2.76,2.31Zm2.43-2.09a.52.52,0,0,1-.68.8l-2.76-2.31a.53.53,0,0,1-.06-.74.52.52,0,0,1,.74-.06l2.76,2.31Zm2.26-2.1a.51.51,0,0,1,.06.73.52.52,0,0,1-.73.07l-2.76-2.32a.51.51,0,0,1-.07-.73.53.53,0,0,1,.74-.07l2.76,2.32Zm2.34-2a.52.52,0,0,1,.06.74.53.53,0,0,1-.74.07L29.74,47.3a.52.52,0,1,1,.68-.8Zm2.44-2.07a.52.52,0,1,1-.68.8l-3.29-2.76a.52.52,0,0,1-.06-.73.53.53,0,0,1,.74-.07ZM38.72,45a.52.52,0,0,1,.09.73.53.53,0,0,1-.74.1L34.33,43a.53.53,0,0,1-.09-.73.54.54,0,0,1,.74-.11L38.72,45Zm-23.5,14.2a.52.52,0,0,1-.68.8l-.72-.6a.52.52,0,0,1-.06-.74.51.51,0,0,1,.73-.06l.73.6Zm2.13-2.42a.53.53,0,0,1,.06.74.52.52,0,0,1-.74.06l-.72-.6a.52.52,0,0,1-.06-.74.51.51,0,0,1,.73-.06l.73.6Zm2.09-2.4a.53.53,0,0,1,.07.74.52.52,0,0,1-.74.06l-.72-.6a.53.53,0,0,1-.07-.74.52.52,0,0,1,.74-.06l.72.6Zm2.31-2.27a.51.51,0,0,1,.07.73.53.53,0,0,1-.74.07l-.72-.61a.52.52,0,0,1-.07-.73.53.53,0,0,1,.74-.07l.72.61ZM24,49.82a.53.53,0,0,1-.67.81L22.58,50a.53.53,0,0,1-.07-.74.52.52,0,0,1,.74-.06Zm2.15-2.23a.53.53,0,0,1-.67.81l-.72-.61a.52.52,0,1,1,.67-.8l.72.6Zm2.24-2.39a.51.51,0,0,1,.06.73.52.52,0,0,1-.73.07L27,45.39a.52.52,0,0,1-.06-.73.53.53,0,0,1,.74-.07l.72.61Zm2.18-2.27a.53.53,0,0,1-.67.81l-.72-.61a.52.52,0,1,1,.67-.8l.72.6Zm2.3-2.4a.52.52,0,1,1-.67.8l-.72-.6a.53.53,0,1,1,.67-.81l.72.61Z" transform="translate(0 0)"/><rect class="cls-6" x="76.88" y="4.25" width="319.3" height="74.44"/><g class="cls-7"><path class="cls-8" d="M110,52.2l-4.91-8.68H99.66V52.2H95V30h12.6l.87.16.65.09a1.65,1.65,0,0,1,.4,0l.74.19a4.61,4.61,0,0,1,3,2.37,8,8,0,0,1,1,4,6.74,6.74,0,0,1-1.09,3.89,5.45,5.45,0,0,1-3.36,2.2l5.47,9.3Zm-1.23-17.49c-.58-.5-1.72-.74-3.43-.74H99.66v5.62h5.72c1.69,0,2.81-.25,3.37-.74a2.81,2.81,0,0,0,.8-2.1A2.58,2.58,0,0,0,108.81,34.71Z" transform="translate(0 0)"/><path class="cls-8" d="M131.55,50.16a9.41,9.41,0,0,1-12.48,0A8.13,8.13,0,0,1,116.66,44a8.1,8.1,0,0,1,2.41-6.12,8.66,8.66,0,0,1,2.78-1.76,9.39,9.39,0,0,1,3.46-.59,8.53,8.53,0,0,1,6.24,2.32A8.36,8.36,0,0,1,133.93,44,8.32,8.32,0,0,1,131.55,50.16Zm-3.12-9.55a3.52,3.52,0,0,0-3.09-1.45,3.88,3.88,0,0,0-3.18,1.48,5.54,5.54,0,0,0-1,3.46,5.62,5.62,0,0,0,1.08,3.46A3.59,3.59,0,0,0,125.28,49a3.86,3.86,0,0,0,3.12-1.49,5.41,5.41,0,0,0,1-3.46A5.78,5.78,0,0,0,128.43,40.61Z" transform="translate(0 0)"/><path class="cls-8" d="M156.55,52.2h-4.89l-3.55-11.09L144.65,52.2H140l-5.68-16.29h4.48l3.55,11.41,3.55-11.41h4.61l3.61,11.41,3.56-11.41h4.48Z" transform="translate(0 0)"/><path class="cls-8" d="M177.65,50.56a3.9,3.9,0,0,1-3.31,1.64h-11V48.83h9.05a3,3,0,0,0,1.55-.31,1.44,1.44,0,0,0,.74-1.33,1.42,1.42,0,0,0-.74-1.26,3.6,3.6,0,0,0-1.67-.31l-2.56,0h-.5c-.58,0-1,0-1.3,0h-.09c-.6,0-1.11-.1-1.54-.16a4.26,4.26,0,0,1-1.8-.62,3,3,0,0,1-1.11-1.54,10.85,10.85,0,0,1-.34-3,4,4,0,0,1,1.52-3.12Q166,35.92,178,35.91v3.37h-7.6a7.38,7.38,0,0,0-2,.13,1.45,1.45,0,0,0-1,1.54c0,.87.78,1.3,2.35,1.3l4.76.09a4.61,4.61,0,0,1,3.86,2.47,7.12,7.12,0,0,1,.43,2.6A5.45,5.45,0,0,1,177.65,50.56Z" transform="translate(0 0)"/><path class="cls-8" d="M201.87,52.2H197l-3.55-11.09L190,52.2h-4.7l-5.69-16.29h4.49l3.55,11.41,3.55-11.41h4.61l3.61,11.41L203,35.91h4.48Z" transform="translate(0 0)"/><path class="cls-8" d="M222.67,50.16a8.5,8.5,0,0,1-6.24,2.38,8.61,8.61,0,0,1-6.25-2.35A8.16,8.16,0,0,1,207.77,44a8.14,8.14,0,0,1,2.41-6.12A8.88,8.88,0,0,1,213,36.16a9.44,9.44,0,0,1,3.47-.59,8.53,8.53,0,0,1,6.24,2.32A8.36,8.36,0,0,1,225.05,44,8.32,8.32,0,0,1,222.67,50.16Zm-3.12-9.55a3.52,3.52,0,0,0-3.09-1.45,3.91,3.91,0,0,0-3.19,1.48,6.2,6.2,0,0,0,.07,6.92,3.58,3.58,0,0,0,3,1.46,3.86,3.86,0,0,0,3.13-1.49,5.47,5.47,0,0,0,1-3.46A5.78,5.78,0,0,0,219.55,40.61Z" transform="translate(0 0)"/><path class="cls-8" d="M241.48,50.16a8.47,8.47,0,0,1-6.24,2.38A8.6,8.6,0,0,1,229,50.19,8.13,8.13,0,0,1,226.59,44,8.1,8.1,0,0,1,229,37.92a8.77,8.77,0,0,1,2.78-1.76,9.39,9.39,0,0,1,3.46-.59,8.5,8.5,0,0,1,6.24,2.32A8.32,8.32,0,0,1,243.86,44,8.28,8.28,0,0,1,241.48,50.16Zm-3.12-9.55a3.52,3.52,0,0,0-3.09-1.45,3.89,3.89,0,0,0-3.18,1.48,5.54,5.54,0,0,0-1,3.46,5.62,5.62,0,0,0,1.08,3.46A3.59,3.59,0,0,0,235.21,49a3.83,3.83,0,0,0,3.12-1.49,5.41,5.41,0,0,0,1-3.46A5.78,5.78,0,0,0,238.36,40.61Z" transform="translate(0 0)"/><path class="cls-8" d="M253.32,52.2h-1.27a2.16,2.16,0,0,0-.43-.06l-.28-.07a5.59,5.59,0,0,1-1.51-.46l-.93-.46-.53-.34a8.44,8.44,0,0,1-3-6.31,18.1,18.1,0,0,1,.27-3.18,5.33,5.33,0,0,1,1.18-2.5,7.15,7.15,0,0,1,3-2.35l.44-.15.43-.13.83-.18.78-.1a10.48,10.48,0,0,1,1,0l3.95,0V30h4.33V52.2Zm3.95-12.73-.4,0h-1.82l-1.05,0-1,0a1.87,1.87,0,0,0-1,.31c-.21.12-.48.31-.81.55a3.18,3.18,0,0,0-1,1.73,12.87,12.87,0,0,0-.28,3,3.34,3.34,0,0,0,1.23,2.81,6.53,6.53,0,0,0,3.65.81H256l1.26,0Z" transform="translate(0 0)"/><path class="cls-8" d="M288.51,33.91V52.2h-4.85V33.91h-7.11V30h19.13v3.87Z" transform="translate(0 0)"/><path class="cls-8" d="M297.56,34V30H302V34Zm0,18.17V35.91H302V52.2Z" transform="translate(0 0)"/><path class="cls-8" d="M324.72,52.2V42.43a3.49,3.49,0,0,0-.58-2.28,2,2,0,0,0-1.58-.68h-1.73l-1.3.06V52.2h-4.42V39.53h-5.06V52.2h-4.27V35.91h16.47a8,8,0,0,1,4.95,1.3q1.82,1.45,1.82,15Z" transform="translate(0 0)"/><path class="cls-8" d="M347,50Q345,52.21,332.88,52.2V30h4.26v5.93l3.53,0h.86a5.08,5.08,0,0,1,1.08.13,7.2,7.2,0,0,1,1.64.34,5.86,5.86,0,0,1,2.9,1.88,7.31,7.31,0,0,1,1.46,2.66A12.88,12.88,0,0,1,349.1,45,7.15,7.15,0,0,1,347,50Zm-3.58-9.45a5.15,5.15,0,0,0-3.65-1.05h-2.66v9.24l1.15,0,2.59,0a3.76,3.76,0,0,0,2.63-1c.7-.64,1.05-1.85,1.05-3.65A4.83,4.83,0,0,0,343.45,40.52Z" transform="translate(0 0)"/><path class="cls-8" d="M359,52.2a8.41,8.41,0,0,1-6.06-2.1Q350.77,48,350.77,44a8.2,8.2,0,0,1,2.1-6.06q2.1-2,12.39-2v3.37h-5.68a6,6,0,0,0-2.88.53,2.73,2.73,0,0,0-1.14,2.56h9.7V45.8h-9.7a2.82,2.82,0,0,0,1.11,2.57q.81.47,8.59.46V52.2Z" transform="translate(0 0)"/><path class="cls-8" d="M375.71,42.71l.06-1.36q0-2-.81-2.19l-.71-.09-1.94,0V52.2H368V35.91h7.23c1.77,0,3,.34,3.59,1s.92,2.61.92,5.78Z" transform="translate(0 0)"/></g></g></g></g></svg>