<svg xmlns="http://www.w3.org/2000/svg" width="69" height="91" viewBox="0 0 69 91"><defs><clipPath id="a"><path fill="none" d="M0 0h69v91H0z"/></clipPath></defs><g clip-path="url(#a)"><g fill="#4f93d8" stroke="#333" stroke-linecap="round" stroke-linejoin="round"><path d="M2 6h57.317v7H2a2 2 0 0 1-2-2V8a2 2 0 0 1 2-2z" stroke="none"/><path d="M2 6.5h56.317a.5.5 0 0 1 .5.5v5a.5.5 0 0 1-.5.5H2A1.5 1.5 0 0 1 .5 11V8A1.5 1.5 0 0 1 2 6.5z" fill="none"/></g><path d="M9.5.5H57A1.5 1.5 0 0 1 58.5 2v4.5h-55a6 6 0 0 1 6-6zM42.8 87.5H13.5l-9-75h54v61.006a10.594 10.594 0 0 0-6.516-2.215 10.7 10.7 0 0 0-10.692 10.693 10.754 10.754 0 0 0 1.506 5.515z" fill="#4f93d8" stroke="#333" stroke-linecap="round" stroke-linejoin="round"/><g transform="translate(-230 -3494)"><circle cx="9" cy="9" r="9" transform="translate(273 3567)" fill="#333"/><circle cx="4" cy="4" r="4" transform="translate(278 3572)" fill="#707070"/></g><g fill="#4f93d8" stroke-linecap="round" stroke-linejoin="round"><path d="M58.5 16.669V6.36l2.64-.88 1.534-.383.192-.048.107-.167A2.99 2.99 0 0 1 65.5 3.499c1.655 0 3 1.346 3 3a3.003 3.003 0 0 1-3.43 2.97l-.57-.082v.425l-6 6.857z"/><path d="M65.5 4c-.856 0-1.643.43-2.106 1.152a1 1 0 0 1-.599.43l-1.515.379-2.28.76v8.617l5.123-5.855a1 1 0 0 1 1.019-.509A2.503 2.503 0 0 0 68 6.499C68 5.121 66.879 4 65.5 4m0-1A3.5 3.5 0 1 1 65 9.964V10l-7 8V6l3-1 1.552-.388A3.497 3.497 0 0 1 65.5 2.999z" fill="#333"/></g><g fill="#fff"><path d="M37.6 39.228l-3.6 6.8 3.6 6.266v-3.148h3.427a1.933 1.933 0 0 0 1.933-.975c.742-1.205 4.132-6.544 4.132-6.544s1.4-1.862.484-3.516-3.129-5.324-3.129-5.324l-5.982 3.5 3.639 6.4h-4.5zM30.146 40.325l-4.086-6.516-7.226-.015 2.726 1.574-1.716 2.972a1.931 1.931 0 0 0-.122 2.16c.673 1.247 3.6 6.855 3.6 6.855s.913 2.143 2.803 2.177 6.177-.051 6.177-.051l-.04-6.93-7.362-.05 2.254-3.903zM33.05 33.55l7.68-.415 3.516-6.313-2.698 1.621-1.767-2.942a1.931 1.931 0 0 0-1.831-1.154c-1.417-.015-7.74-.174-7.74-.174s-2.318-.24-3.264 1.396-2.95 5.428-2.95 5.428l6.081 3.325 3.612-6.416 2.322 3.864z"/></g></g></svg>